<svg preserveAspectRatio="none" overflow="visible" style="display: block;" width="18.1667" height="11.5" viewBox="0 0 18.1667 11.5" fill="none" xmlns="http://www.w3.org/2000/svg">
<path id="Vector" d="M7.41667 2.41667V7.41667M10.75 0.75V7.41667M17.4167 9.08333V9.91667C17.4167 10.3333 17 10.75 16.5833 10.75H1.58333C1.16667 10.75 0.75 10.3333 0.75 9.91667V9.08333M7.41667 4.91667C7.41667 6.29738 6.29738 7.41667 4.91667 7.41667C3.53595 7.41667 2.41667 6.29738 2.41667 4.91667C2.41667 3.53595 3.53595 2.41667 4.91667 2.41667C6.29738 2.41667 7.41667 3.53595 7.41667 4.91667ZM15.75 4.91667C15.75 6.29738 14.6307 7.41667 13.25 7.41667C11.8693 7.41667 10.75 6.29738 10.75 4.91667C10.75 3.53595 11.8693 2.41667 13.25 2.41667C14.6307 2.41667 15.75 3.53595 15.75 4.91667Z" stroke="#B1FFB1" stroke-width="1.5" stroke-linecap="round" stroke-linejoin="round"/>
</svg>
