<svg viewBox="0 0 48 48" fill="none" xmlns="http://www.w3.org/2000/svg"><path d="M24 4C27.88 4 31.68 5.13 34.93 7.25C38.18 9.37 40.74 12.39 42.31 15.94C43.87 19.49 44.37 23.42 43.74 27.25C43.11 31.07 41.38 34.64 38.76 37.5" stroke="white" stroke-width="3" stroke-linecap="round" stroke-linejoin="round"></path><path d="M32 24L24 16L16 24" stroke="white" stroke-width="3" stroke-linecap="round" stroke-linejoin="round"></path><path d="M24 32V16" stroke="white" stroke-width="3" stroke-linecap="round" stroke-linejoin="round"></path><path d="M5 17.75C4.36 19.69 4.03 21.71 4 23.75" stroke="white" stroke-width="3" stroke-linecap="round" stroke-linejoin="round"></path><path d="M5.66 32C6.78 34.58 8.44 36.9 10.52 38.8" stroke="white" stroke-width="3" stroke-linecap="round" stroke-linejoin="round"></path><path d="M9.27 10.47C9.83 9.86 10.42 9.29 11.05 8.76" stroke="white" stroke-width="3" stroke-linecap="round" stroke-linejoin="round"></path><path d="M17.29 42.84C22.27 44.62 27.76 44.34 32.55 42.08" stroke="white" stroke-width="3" stroke-linecap="round" stroke-linejoin="round"></path></svg>