<svg viewBox="0 0 48 48" fill="none" xmlns="http://www.w3.org/2000/svg"><path d="M24.67 40V44" stroke="white" stroke-width="3" stroke-linecap="round" stroke-linejoin="round"></path><path d="M24.67 4V8" stroke="white" stroke-width="3" stroke-linecap="round" stroke-linejoin="round"></path><path d="M34.67 40V44" stroke="white" stroke-width="3" stroke-linecap="round" stroke-linejoin="round"></path><path d="M34.67 4V8" stroke="white" stroke-width="3" stroke-linecap="round" stroke-linejoin="round"></path><path d="M4.67 24H8.67" stroke="white" stroke-width="3" stroke-linecap="round" stroke-linejoin="round"></path><path d="M4.67 34H8.67" stroke="white" stroke-width="3" stroke-linecap="round" stroke-linejoin="round"></path><path d="M4.67 14H8.67" stroke="white" stroke-width="3" stroke-linecap="round" stroke-linejoin="round"></path><path d="M40.67 24H44.67" stroke="white" stroke-width="3" stroke-linecap="round" stroke-linejoin="round"></path><path d="M40.67 34H44.67" stroke="white" stroke-width="3" stroke-linecap="round" stroke-linejoin="round"></path><path d="M40.67 14H44.67" stroke="white" stroke-width="3" stroke-linecap="round" stroke-linejoin="round"></path><path d="M14.67 40V44" stroke="white" stroke-width="3" stroke-linecap="round" stroke-linejoin="round"></path><path d="M14.67 4V8" stroke="white" stroke-width="3" stroke-linecap="round" stroke-linejoin="round"></path><path d="M36.67 8H12.67C10.46 8 8.67 9.79 8.67 12V36C8.67 38.21 10.46 40 12.67 40H36.67C38.88 40 40.67 38.21 40.67 36V12C40.67 9.79 38.88 8 36.67 8Z" stroke="white" stroke-width="1.5" stroke-linecap="round" stroke-linejoin="round"></path><path d="M30.67 16H18.67C17.56 16 16.67 16.9 16.67 18V30C16.67 31.1 17.56 32 18.67 32H30.67C31.77 32 32.67 31.1 32.67 30V18C32.67 16.9 31.77 16 30.67 16Z" stroke="white" stroke-width="1.5" stroke-linecap="round" stroke-linejoin="round"></path></svg>