<svg viewBox="0 0 140 80" fill="none" xmlns="http://www.w3.org/2000/svg"><g filter="url(#filter0_di_221_30440)" style="mix-blend-mode:luminosity"><path d="M90.9 55.24C93.27 55.24 96.21 55.09 98.55 55.42C98.91 55.47 99.78 56.15 100.05 56.42C101.23 57.59 108.43 64.53 108.75 65.11C103.85 65.4 98.86 65.17 93.95 65.18C92.14 65.18 86.06 65.46 84.86 65.07C83.5 64.64 75.23 56.75 74.51 55.29C79.97 55.24 85.44 55.22 90.9 55.24ZM126.19 4.86C128.3 4.86 129.89 5.08 131.42 6.7C132.62 7.88 133 9.33 132.9 11.01C132.76 13.61 131.4 16.47 130.46 18.89L127.22 27.26L124.37 34.52C122.43 39.61 121.25 42.94 117.11 46.85C112.9 50.82 110.01 50.4 104.65 50.4L95.69 50.39L78.17 50.4C74.89 50.4 71.27 50.48 68.01 50.35C65.96 48.94 62.71 45.95 60.76 44.25C57.33 41.27 53.47 38.17 50.21 35.06C57.8 34.95 65.58 35.03 73.18 35.03C76.16 35.04 93.82 35.29 95.15 34.84C98.16 33.8 100.02 31.61 101.36 28.78C102.58 26.2 103.24 23.24 102.29 20.49C99.35 20.15 94.2 20.34 91.02 20.34L67.03 20.34C63.7 20.34 57.5 20.53 54.45 20.24L42.7 50.77L39.13 59.99C38.57 61.44 37.56 63.83 37.18 65.23C28.9 65.33 20.39 65.24 12.09 65.24C19.3 45.87 27.15 26.68 34.45 7.34C34.69 6.72 35.15 5.34 35.55 4.87L98 4.88C107.4 4.88 116.8 4.89 126.19 4.86Z" fill="url(#paint0_linear_221_30440)" shape-rendering="crispEdges"></path><path d="M90.9 55.24C93.27 55.24 96.21 55.09 98.55 55.42C98.91 55.47 99.78 56.15 100.05 56.42C101.23 57.59 108.43 64.53 108.75 65.11C103.85 65.4 98.86 65.17 93.95 65.18C92.14 65.18 86.06 65.46 84.86 65.07C83.5 64.64 75.23 56.75 74.51 55.29C79.97 55.24 85.44 55.22 90.9 55.24ZM126.19 4.86C128.3 4.86 129.89 5.08 131.42 6.7C132.62 7.88 133 9.33 132.9 11.01C132.76 13.61 131.4 16.47 130.46 18.89L127.22 27.26L124.37 34.52C122.43 39.61 121.25 42.94 117.11 46.85C112.9 50.82 110.01 50.4 104.65 50.4L95.69 50.39L78.17 50.4C74.89 50.4 71.27 50.48 68.01 50.35C65.96 48.94 62.71 45.95 60.76 44.25C57.33 41.27 53.47 38.17 50.21 35.06C57.8 34.95 65.58 35.03 73.18 35.03C76.16 35.04 93.82 35.29 95.15 34.84C98.16 33.8 100.02 31.61 101.36 28.78C102.58 26.2 103.24 23.24 102.29 20.49C99.35 20.15 94.2 20.34 91.02 20.34L67.03 20.34C63.7 20.34 57.5 20.53 54.45 20.24L42.7 50.77L39.13 59.99C38.57 61.44 37.56 63.83 37.18 65.23C28.9 65.33 20.39 65.24 12.09 65.24C19.3 45.87 27.15 26.68 34.45 7.34C34.69 6.72 35.15 5.34 35.55 4.87L98 4.88C107.4 4.88 116.8 4.89 126.19 4.86Z" fill="url(#paint1_radial_221_30440)" fill-opacity="0.2" style="mix-blend-mode:plus-lighter" shape-rendering="crispEdges"></path><path d="M90.9 55.24C93.27 55.24 96.21 55.09 98.55 55.42C98.91 55.47 99.78 56.15 100.05 56.42C101.23 57.59 108.43 64.53 108.75 65.11C103.85 65.4 98.86 65.17 93.95 65.18C92.14 65.18 86.06 65.46 84.86 65.07C83.5 64.64 75.23 56.75 74.51 55.29C79.97 55.24 85.44 55.22 90.9 55.24ZM126.19 4.86C128.3 4.86 129.89 5.08 131.42 6.7C132.62 7.88 133 9.33 132.9 11.01C132.76 13.61 131.4 16.47 130.46 18.89L127.22 27.26L124.37 34.52C122.43 39.61 121.25 42.94 117.11 46.85C112.9 50.82 110.01 50.4 104.65 50.4L95.69 50.39L78.17 50.4C74.89 50.4 71.27 50.48 68.01 50.35C65.96 48.94 62.71 45.95 60.76 44.25C57.33 41.27 53.47 38.17 50.21 35.06C57.8 34.95 65.58 35.03 73.18 35.03C76.16 35.04 93.82 35.29 95.15 34.84C98.16 33.8 100.02 31.61 101.36 28.78C102.58 26.2 103.24 23.24 102.29 20.49C99.35 20.15 94.2 20.34 91.02 20.34L67.03 20.34C63.7 20.34 57.5 20.53 54.45 20.24L42.7 50.77L39.13 59.99C38.57 61.44 37.56 63.83 37.18 65.23C28.9 65.33 20.39 65.24 12.09 65.24C19.3 45.87 27.15 26.68 34.45 7.34C34.69 6.72 35.15 5.34 35.55 4.87L98 4.88C107.4 4.88 116.8 4.89 126.19 4.86Z" fill="url(#paint2_radial_221_30440)" fill-opacity="0.15" style="mix-blend-mode:plus-lighter" shape-rendering="crispEdges"></path></g><defs><filter id="filter0_di_221_30440" x="-1.13e-05" y="0" width="140" height="79.59" filterUnits="userSpaceOnUse" color-interpolation-filters="sRGB"><feFlood flood-opacity="0" result="BackgroundImageFix"></feFlood><feColorMatrix in="SourceAlpha" type="matrix" values="0 0 0 0 0 0 0 0 0 0 0 0 0 0 0 0 0 0 127 0" result="hardAlpha"></feColorMatrix><feOffset dx="-1.24" dy="2.35"></feOffset><feGaussianBlur stdDeviation="2.38"></feGaussianBlur><feComposite in2="hardAlpha" operator="out"></feComposite><feColorMatrix type="matrix" values="0 0 0 0 0.05 0 0 0 0 0.02 0 0 0 0 0.19 0 0 0 0.25 0"></feColorMatrix><feBlend mode="normal" in2="BackgroundImageFix" result="effect1_dropShadow_221_30440"></feBlend><feBlend mode="normal" in="SourceGraphic" in2="effect1_dropShadow_221_30440" result="shape"></feBlend><feColorMatrix in="SourceAlpha" type="matrix" values="0 0 0 0 0 0 0 0 0 0 0 0 0 0 0 0 0 0 127 0" result="hardAlpha"></feColorMatrix><feOffset dy="2.9"></feOffset><feGaussianBlur stdDeviation="1.83"></feGaussianBlur><feComposite in2="hardAlpha" operator="arithmetic" k2="-1" k3="1"></feComposite><feColorMatrix type="matrix" values="0 0 0 0 1 0 0 0 0 1 0 0 0 0 1 0 0 0 1 0"></feColorMatrix><feBlend mode="normal" in2="shape" result="effect2_innerShadow_221_30440"></feBlend></filter><linearGradient id="paint0_linear_221_30440" x1="72.5" y1="4.86" x2="72.5" y2="65.28" gradientUnits="userSpaceOnUse"><stop stop-color="white" stop-opacity="0.8"></stop><stop offset="1" stop-color="white" stop-opacity="0.2"></stop></linearGradient><radialGradient id="paint1_radial_221_30440" cx="0" cy="0" r="1" gradientTransform="matrix(54.7 25.83 -105.85 36.06 48.09 15.41)" gradientUnits="userSpaceOnUse"><stop stop-color="white" stop-opacity="0.8"></stop><stop offset="0.31" stop-color="white" stop-opacity="0.2"></stop><stop offset="1" stop-color="white" stop-opacity="0"></stop></radialGradient><radialGradient id="paint2_radial_221_30440" cx="0" cy="0" r="1" gradientTransform="matrix(143.32 81.08 -495.87 140.99 48.09 15.41)" gradientUnits="userSpaceOnUse"><stop stop-color="white" stop-opacity="0.8"></stop><stop offset="0.25" stop-color="white" stop-opacity="0.2"></stop><stop offset="1" stop-color="white" stop-opacity="0"></stop></radialGradient></defs></svg>